<svg xmlns="http://www.w3.org/2000/svg" fill="none" viewBox="0 0 1046 238"><path fill="#fff" fill-rule="evenodd" d="M596.73 81.52c17.65.03 37.24 3.69 50.07 16.8a38.04 38.04 0 0 1-.81 54.32c-21.55 20.91-59.72 19.26-87.35 19.1 11.06 48.08 60.6 38.31 94.12 21.18 1.83 1.8 1.74 3.37 2.45 6.17l4.6 17.16c-46.5 29.6-139.04 24.92-144.5-44.84-4.1-52.4 22.71-85.73 75.52-89.66l1.47-.1q2.2-.12 4.43-.13m-5.71 24.02c-25.6 3.75-30.65 21.68-32.78 44.9 10.2.19 16.34.02 26.53-.92 6.7-1.22 10.48-1.95 17.14-4.87 13.82-6.02 21.98-25.48 7.05-35.34-4.77-3.15-10.9-3.83-16.77-3.78z" clip-rule="evenodd"/><path fill="#fff" d="m322.78 85.14-.07 62.5c-.02 14.26-2.32 37.61 6.85 49.46 2.81 3.64 10.65 6.27 15.3 6.05 31.39-1.47 27.7-48.33 27.67-69.92l-.1-48.13 43.54.04c.11 28.76-.4 58.14.23 86.87.71 8.87 2.13 20.94 9.66 26.78 8.6 6.69 22.8 3.37 28.64-5.48 15.56-23.6 13.54-58.97 10-85.67-1.6-8.05-3.64-14.35-6.11-22.2q18.3-.42 36.63-.03c7.59 33.37 7.13 66.03-4.08 99.43-12.2 36.35-47.84 57.35-85.5 44.46-12.72-4.35-19.55-14.53-24.72-26.57-9.3 20.56-29.07 30.74-51.1 30.21-54.56-1.3-50.66-48.1-50.6-87.6l.24-60.3zm559.35-3.38c18.44-.83 37.43 3.43 54.17 10.99a332 332 0 0 1-9.01 24.8c-11.95-6.8-21.62-10.5-35.77-11.81-9.7-.93-29.3 2.4-28.04 15.74 1.38 14.7 33.07 21.21 42.43 26.28 9.36 5.06 15.9 7.18 22.18 13.94 15.6 14.18 13.97 41.43-.96 55.75-15.95 15.31-39.48 15.72-60.58 15.42-18.15-1.57-32.88-4.72-49.23-13.36l8.88-25.72c16.28 10.47 36.8 13.46 50.05 14.72s26.34-7.77 23.09-15.84c-8.53-21.3-46.11-22.06-62.8-37.88-17.33-16.43-19.46-35.74-5.23-54.29 10.9-14.2 34.1-17.52 50.82-18.74M721.96.12l2.37-.12c4.5 6.53-2.95 181 2.75 201.76 1.39 5.08 8.36 4.18 12.64 3.85q.67 10.88 1.66 21.74c-12.28 5.88-23.75 5.75-36.8 4.52-27.44-6.22-23.44-26.03-23.77-48.92-.19-12.92 0-25.99.02-38.92l-.11-136.1q20.55-4.23 41.24-7.8M996 38.99l1.64.03c2.3 3.01 1.35 40.01 1.33 46.88l43.22.05c-2.39 8.94-4.6 18.2-6.84 27.18l-36.47-.28c.01 16.25-2.35 73.05 2.45 83.82a16.6 16.6 0 0 0 9.77 9.26c9.08 3.18 20.8-1.25 28.86-5.32l5.3 22.36a81.5 81.5 0 0 1-36.61 9.93c-61.33 1.94-53.16-43.31-53.18-87.9l-.23-97.46c13.16-2.16 27.63-5.65 40.76-8.55M755.94 85.74h43.36c.87 46.82.2 95.76.25 142.74l-43.94.09c1-14.32.4-35.71.38-50.41zM774.9 8.06a24.99 24.99 0 1 1 8.6 49.23 24.99 24.99 0 0 1-8.6-49.23M0 88c0-9.83 7.62-17.8 17.03-17.8h183.06c9.4 0 17.03 7.97 17.03 17.8s-7.62 17.8-17.03 17.8H17.03C7.63 105.8 0 97.85 0 88m0 45.4c0-8.36 6.48-15.13 14.47-15.13h180.51c8 0 14.48 6.77 14.48 15.13 0 8.35-6.48 15.13-14.48 15.13H14.48c-8 0-14.48-6.78-14.48-15.13m0 39.16c0-6.4 4.96-11.57 11.07-11.57h165.18c6.11 0 11.07 5.18 11.07 11.57s-4.96 11.57-11.07 11.57H11.07C4.96 184.13 0 178.95 0 172.56m0 34.27c0-5.66 4.38-10.24 9.8-10.24h147.3c5.4 0 9.78 4.58 9.78 10.24s-4.38 10.23-9.79 10.23H9.8c-5.4 0-9.79-4.58-9.79-10.23m4.25 25.81a5.23 5.23 0 0 1 5.1-5.34h126.02c2.82 0 5.1 2.39 5.1 5.34a5.23 5.23 0 0 1-5.1 5.34H9.37a5.23 5.23 0 0 1-5.11-5.34"/></svg>
